<?xml version="1.0" encoding="iso-8859-1"?>
<!-- Generator: Adobe Illustrator 19.0.0, SVG Export Plug-In . SVG Version: 6.00 Build 0)  -->
<svg version="1.1" id="Capa_1" xmlns="http://www.w3.org/2000/svg" xmlns:xlink="http://www.w3.org/1999/xlink" x="0px" y="0px"
	 viewBox="0 0 512 512" style="enable-background:new 0 0 512 512;" xml:space="preserve">
<g>
	<g>
		<path d="M176.865,162.724c-31.844,0-57.749,25.905-57.749,57.749c0,31.854,25.905,57.759,57.749,57.759
			c31.844,0,57.759-25.905,57.759-57.759C234.624,188.629,208.709,162.724,176.865,162.724z"/>
	</g>
</g>
<g>
	<g>
		<path d="M493.624,35.199H18.366C8.223,35.199,0,43.422,0,53.566v294.393c0,10.143,8.222,18.366,18.366,18.366h8.718l82.075-82.075
			c2.047-2.047,2.248-5.337,0.39-7.558c-13.346-15.956-21.141-36.705-20.376-59.255c1.573-46.358,39.599-83.801,85.976-84.69
			c49.834-0.956,90.552,39.853,89.447,89.709c-1.03,46.415-38.611,84.32-85.016,85.728c-13.917,0.423-27.132-2.417-38.956-7.802
			c-2.134-0.972-4.642-0.533-6.301,1.126l-64.826,64.817h424.127c10.138,0,18.376-8.238,18.376-18.366V53.576
			C512,43.448,503.762,35.199,493.624,35.199z M318.218,295.588c0,8.288-6.709,14.997-14.997,14.997
			c-8.278,0-14.997-6.709-14.997-14.997V237.71c0-8.278,6.719-14.997,14.997-14.997c8.288,0,14.997,6.719,14.997,14.997V295.588z
			 M365.209,295.588c0,8.288-6.709,14.997-14.997,14.997c-8.278,0-14.997-6.709-14.997-14.997V137.729
			c0-8.278,6.719-14.997,14.997-14.997c8.288,0,14.997,6.719,14.997,14.997V295.588z M412.979,295.588
			c0,8.288-6.719,14.997-14.997,14.997c-8.288,0-14.997-6.709-14.997-14.997V177.721c0-8.278,6.709-14.997,14.997-14.997
			c8.278,0,14.997,6.719,14.997,14.997V295.588z M460.78,295.588c0,8.288-6.719,14.997-14.997,14.997
			c-8.288,0-14.997-6.709-14.997-14.997v-77.875c0-8.278,6.709-14.997,14.997-14.997c8.278,0,14.997,6.719,14.997,14.997V295.588z"
			/>
	</g>
</g>
<g>
	<g>
		<path d="M376.074,447.979l-0.1-0.043c-23.317-9.998-47.475-16.964-72.21-20.875v-28.462c0-3.098-2.511-5.61-5.61-5.61h-9.935
			h-14.448h-59.925c-3.098,0-5.61,2.512-5.61,5.61v28.498c-24.599,3.908-48.625,10.837-71.817,20.766
			c-7.433,3.182-11.344,11.676-8.477,19.236c3.047,8.036,12.138,11.838,19.95,8.479c34.354-14.759,70.733-22.25,108.124-22.264
			h0.313c37.072,0,73.756,7.548,107.817,22.184l0.188,0.081c1.931,0.83,3.937,1.222,5.914,1.222
			c6.93-0.001,13.462-4.833,14.829-12.599C386.272,457.399,382.422,450.7,376.074,447.979z"/>
	</g>
</g>
<g>
	<g>
		<path d="M27.085,366.324L4.574,388.88c-5.859,5.859-5.859,15.347,0,21.206c2.929,2.929,6.769,4.389,10.608,4.389
			c3.839,0,7.679-1.46,10.598-4.389l43.716-43.762H27.085z"/>
	</g>
</g>
<g>
</g>
<g>
</g>
<g>
</g>
<g>
</g>
<g>
</g>
<g>
</g>
<g>
</g>
<g>
</g>
<g>
</g>
<g>
</g>
<g>
</g>
<g>
</g>
<g>
</g>
<g>
</g>
<g>
</g>
</svg>
